<svg width="112" height="42" viewBox="0 0 112 42" fill="none" xmlns="http://www.w3.org/2000/svg">
<path d="M15.2372 15.32V32H12.5012V24.704H4.65319V32H1.91719V15.32H4.65319V22.472H12.5012V15.32H15.2372ZM17.9271 25.328C17.9271 24 18.1991 22.824 18.7431 21.8C19.3031 20.776 20.0551 19.984 20.9991 19.424C21.9591 18.848 23.0151 18.56 24.1671 18.56C25.2071 18.56 26.1111 18.768 26.8791 19.184C27.6631 19.584 28.2871 20.088 28.7511 20.696V18.776H31.5111V32H28.7511V30.032C28.2871 30.656 27.6551 31.176 26.8551 31.592C26.0551 32.008 25.1431 32.216 24.1191 32.216C22.9831 32.216 21.9431 31.928 20.9991 31.352C20.0551 30.76 19.3031 29.944 18.7431 28.904C18.1991 27.848 17.9271 26.656 17.9271 25.328ZM28.7511 25.376C28.7511 24.464 28.5591 23.672 28.1751 23C27.8071 22.328 27.3191 21.816 26.7111 21.464C26.1031 21.112 25.4471 20.936 24.7431 20.936C24.0391 20.936 23.3831 21.112 22.7751 21.464C22.1671 21.8 21.6711 22.304 21.2871 22.976C20.9191 23.632 20.7351 24.416 20.7351 25.328C20.7351 26.24 20.9191 27.04 21.2871 27.728C21.6711 28.416 22.1671 28.944 22.7751 29.312C23.3991 29.664 24.0551 29.84 24.7431 29.84C25.4471 29.84 26.1031 29.664 26.7111 29.312C27.3191 28.96 27.8071 28.448 28.1751 27.776C28.5591 27.088 28.7511 26.288 28.7511 25.376ZM36.4967 17.024C36.0007 17.024 35.5847 16.856 35.2487 16.52C34.9127 16.184 34.7447 15.768 34.7447 15.272C34.7447 14.776 34.9127 14.36 35.2487 14.024C35.5847 13.688 36.0007 13.52 36.4967 13.52C36.9767 13.52 37.3847 13.688 37.7207 14.024C38.0567 14.36 38.2247 14.776 38.2247 15.272C38.2247 15.768 38.0567 16.184 37.7207 16.52C37.3847 16.856 36.9767 17.024 36.4967 17.024ZM37.8407 18.776V32H35.1047V18.776H37.8407ZM47.4328 15.152C49.2088 15.152 50.7608 15.504 52.0888 16.208C53.4168 16.912 54.4408 17.904 55.1608 19.184C55.8968 20.448 56.2648 21.912 56.2648 23.576C56.2648 25.224 55.8968 26.688 55.1608 27.968C54.4408 29.248 53.4088 30.24 52.0648 30.944C50.7368 31.648 49.1928 32 47.4328 32H41.1208V15.152H47.4328ZM47.1688 28.448C48.7208 28.448 49.9288 28.024 50.7928 27.176C51.6568 26.328 52.0888 25.128 52.0888 23.576C52.0888 22.024 51.6568 20.816 50.7928 19.952C49.9288 19.088 48.7208 18.656 47.1688 18.656H45.2248V28.448H47.1688ZM64.6543 32.192C63.3423 32.192 62.1583 31.912 61.1023 31.352C60.0623 30.792 59.2383 29.992 58.6303 28.952C58.0383 27.912 57.7423 26.696 57.7423 25.304C57.7423 23.928 58.0463 22.72 58.6543 21.68C59.2623 20.624 60.0943 19.816 61.1503 19.256C62.2063 18.696 63.3903 18.416 64.7023 18.416C66.0143 18.416 67.1983 18.696 68.2543 19.256C69.3103 19.816 70.1423 20.624 70.7503 21.68C71.3583 22.72 71.6623 23.928 71.6623 25.304C71.6623 26.68 71.3503 27.896 70.7263 28.952C70.1183 29.992 69.2783 30.792 68.2063 31.352C67.1503 31.912 65.9663 32.192 64.6543 32.192ZM64.6543 28.64C65.4383 28.64 66.1023 28.352 66.6463 27.776C67.2063 27.2 67.4863 26.376 67.4863 25.304C67.4863 24.232 67.2143 23.408 66.6703 22.832C66.1423 22.256 65.4863 21.968 64.7023 21.968C63.9023 21.968 63.2383 22.256 62.7103 22.832C62.1823 23.392 61.9183 24.216 61.9183 25.304C61.9183 26.376 62.1743 27.2 62.6863 27.776C63.2143 28.352 63.8703 28.64 64.6543 28.64ZM73.0236 25.304C73.0236 23.912 73.3036 22.696 73.8636 21.656C74.4396 20.616 75.2316 19.816 76.2396 19.256C77.2636 18.696 78.4316 18.416 79.7436 18.416C81.4236 18.416 82.8236 18.856 83.9436 19.736C85.0796 20.616 85.8236 21.856 86.1756 23.456H81.8076C81.4396 22.432 80.7276 21.92 79.6716 21.92C78.9196 21.92 78.3196 22.216 77.8716 22.808C77.4236 23.384 77.1996 24.216 77.1996 25.304C77.1996 26.392 77.4236 27.232 77.8716 27.824C78.3196 28.4 78.9196 28.688 79.6716 28.688C80.7276 28.688 81.4396 28.176 81.8076 27.152H86.1756C85.8236 28.72 85.0796 29.952 83.9436 30.848C82.8076 31.744 81.4076 32.192 79.7436 32.192C78.4316 32.192 77.2636 31.912 76.2396 31.352C75.2316 30.792 74.4396 29.992 73.8636 28.952C73.3036 27.912 73.0236 26.696 73.0236 25.304Z" fill="#172048"/>
<path d="M98.5 13H96V10H98.5V7.5H101.5V10H104V13H101.5V15.5H98.5V13ZM100 2L92 5V11.09C92 16.14 95.41 20.85 100 22C104.59 20.85 108 16.14 108 11.09V5L100 2Z" fill="url(#paint0_linear_204_2)"/>
<defs>
<linearGradient id="paint0_linear_204_2" x1="89.5" y1="2" x2="106.5" y2="20.5" gradientUnits="userSpaceOnUse">
<stop stop-color="#51D9DB"/>
<stop offset="1" stop-color="#017399"/>
</linearGradient>
</defs>
</svg>
